<?xml version="1.0" encoding="utf-8"?><svg viewBox="0 0 70 70" xmlns="http://www.w3.org/2000/svg" xmlns:xlink="http://www.w3.org/1999/xlink"><style>:root>svg{display:none}:root>svg:target{display:block}</style><svg fill="none" viewBox="0 0 70 70" id="about1" xmlns="http://www.w3.org/2000/svg"><path d="M27.667 12.538h-.944v-.944a1.026 1.026 0 1 0-2.052 0v.944h-.944a1.026 1.026 0 0 0 0 2.052h.944v.944a1.026 1.026 0 1 0 2.052 0v-.944h.944a1.026 1.026 0 1 0 0-2.052ZM46.272 12.538h-.944v-.944a1.026 1.026 0 0 0-2.052 0v.944h-.945a1.026 1.026 0 1 0 0 2.052h.945v.944a1.026 1.026 0 1 0 2.052 0v-.944h.944a1.026 1.026 0 1 0 0-2.052ZM27.667 26.63h-.944v-.945a1.026 1.026 0 1 0-2.052 0v.945h-.944a1.026 1.026 0 0 0 0 2.051h.944v.945a1.026 1.026 0 1 0 2.052 0v-.945h.944a1.026 1.026 0 1 0 0-2.052ZM46.272 26.63h-.944v-.945a1.026 1.026 0 1 0-2.052 0v.945h-.945a1.026 1.026 0 0 0 0 2.051h.945v.945a1.026 1.026 0 1 0 2.052 0v-.945h.944a1.026 1.026 0 1 0 0-2.052Z" fill="#fff"/><path d="M63.456 29.052H49.879c-1.16 0-2.103.943-2.103 2.103v2.778c0 1.16.943 2.103 2.103 2.103h.197v4.644a5.338 5.338 0 0 0-3.313-1.15H22.968c-1.25 0-2.401.43-3.314 1.15v-4.654h.467c1.16 0 2.103-.944 2.103-2.103v-2.778c0-1.16-.943-2.103-2.103-2.103H6.544c-1.16 0-2.103.943-2.103 2.103v2.778c0 1.16.943 2.103 2.103 2.103h.467V49.12a4.019 4.019 0 0 0 3.663 3.998v2.046a2.95 2.95 0 0 0 2.947 2.948h2.351v9.836h-1.469a1.026 1.026 0 1 0 0 2.052h10.252a1.026 1.026 0 0 0 0-2.052h-1.47v-9.836h23.16v9.836h-1.47a1.026 1.026 0 1 0 0 2.052h10.252a1.026 1.026 0 0 0 0-2.052h-1.469v-9.836h2.351a2.95 2.95 0 0 0 2.947-2.948v-2.046a4.019 4.019 0 0 0 3.663-3.998V36.037h.737c1.16 0 2.104-.944 2.104-2.103v-2.778c0-1.16-.944-2.103-2.104-2.103Zm-40.489 12.53h23.796a3.318 3.318 0 0 1 3.314 3.314v6.187H19.654v-6.187a3.318 3.318 0 0 1 3.314-3.314ZM6.545 33.974a.052.052 0 0 1-.051-.051v-2.778c0-.028.023-.051.051-.051h13.577c.028 0 .051.023.051.051v2.778a.052.052 0 0 1-.051.051H6.544Zm4.481 17.109a1.964 1.964 0 0 1-1.962-1.962V36.026h8.539v15.057h-6.577Zm10.209 16.865h-3.21v-9.836h3.21v9.836Zm30.472 0h-3.21v-9.836h3.21v9.836Zm5.298-12.784a.896.896 0 0 1-.895.896H13.621a.896.896 0 0 1-.895-.896v-2.03h44.278v2.03Zm3.663-6.043c0 1.081-.88 1.962-1.962 1.962h-6.576V36.036h8.538v13.085Zm2.84-15.188a.052.052 0 0 1-.05.051H49.878a.052.052 0 0 1-.051-.051v-2.778c0-.028.023-.051.051-.051h13.577c.028 0 .052.023.052.051v2.778ZM57.696 8.455C57.696 3.793 53.903 0 49.24 0H20.486c-4.662 0-8.455 3.793-8.455 8.455V25.27a1.026 1.026 0 0 0 2.052 0V8.455a6.41 6.41 0 0 1 6.403-6.403h28.755c3.53 0 6.403 2.872 6.403 6.408l.08 16.814a1.026 1.026 0 0 0 1.025 1.02h.005a1.026 1.026 0 0 0 1.021-1.03l-.08-16.809Z" fill="#fff"/></svg><svg fill="none" viewBox="0 0 70 66" id="about2" xmlns="http://www.w3.org/2000/svg"><path d="M68.927 31.641V1.936c0-.568-.46-1.027-1.027-1.027H2.1c-.567 0-1.027.46-1.027 1.027V31.64A2.01 2.01 0 0 0 0 33.418v2.108c0 .77.436 1.44 1.073 1.777v26.761c0 .567.46 1.027 1.027 1.027h65.8c.567 0 1.027-.46 1.027-1.027V37.303A2.011 2.011 0 0 0 70 35.526v-2.108c0-.77-.436-1.44-1.073-1.777ZM66.486 2.963c-.412.604-1.171 1.313-2.373 2.068l-.044.028a17.047 17.047 0 0 1-.315.19l-.169.099-.138.08-.138.076-.173.096-.032.017c-.148.08-.303.16-.46.241l-.128.065-.185.091-.172.084a22.818 22.818 0 0 1-.834.385l-.068.03c-.42.184-.866.369-1.342.553-.615.239-1.271.475-1.973.707a57.464 57.464 0 0 1-6.103 1.626 1.029 1.029 0 0 0-.103.016c-2.045.428-4.197.78-6.397 1.046-.028.004-.055.01-.082.015A87.003 87.003 0 0 1 35 11.077a87.05 87.05 0 0 1-10.257-.6c-.027-.007-.054-.012-.082-.016a75.834 75.834 0 0 1-6.397-1.045 1.029 1.029 0 0 0-.103-.016 57.46 57.46 0 0 1-6.103-1.627 40.953 40.953 0 0 1-1.973-.707 33.528 33.528 0 0 1-1.342-.553l-.068-.03a29.615 29.615 0 0 1-.666-.304l-.168-.08-.172-.084-.184-.091-.128-.065c-.156-.08-.309-.16-.456-.24-.012-.006-.025-.012-.036-.019-.06-.031-.116-.063-.173-.095l-.138-.077-.139-.08a17.865 17.865 0 0 1-.169-.098l-.1-.06a15.709 15.709 0 0 1-.214-.131l-.045-.028c-1.202-.755-1.961-1.464-2.372-2.068h62.97ZM3.126 5.569c.317.274.68.553 1.092.835 1.09.755 2.545 1.54 4.476 2.325C8.692 15.18 6.81 22.359 5.2 27.32a1.027 1.027 0 1 0 1.953.634c1.594-4.911 3.444-11.948 3.584-18.461.22.076.445.153.676.229a58.033 58.033 0 0 0 5.326 1.467c-2.17 6.735-5.71 12.287-8.361 15.824a1.027 1.027 0 0 0 1.643 1.232c2.774-3.7 6.487-9.532 8.739-16.629 1.414.277 2.87.518 4.356.72-2.175 5.33-6.527 10.82-9.916 14.6a1.027 1.027 0 1 0 1.53 1.371c6.318-7.048 9.188-12.33 10.49-15.71A89.3 89.3 0 0 0 35 13.13c3.316 0 6.605-.183 9.779-.534 2.22 5.775 6.89 11.696 10.499 15.721a1.027 1.027 0 0 0 1.53-1.37c-3.393-3.784-7.749-9.278-9.925-14.61a76.495 76.495 0 0 0 4.356-.72c2.254 7.104 5.974 12.942 8.753 16.646a1.025 1.025 0 0 0 1.437.205c.454-.34.546-.984.205-1.437-2.656-3.541-6.201-9.1-8.374-15.842a58.067 58.067 0 0 0 5.326-1.467c.23-.076.455-.153.676-.23.14 6.51 1.988 13.543 3.58 18.45a1.027 1.027 0 0 0 1.954-.633c-1.609-4.959-3.488-12.133-3.49-18.582 1.93-.784 3.385-1.57 4.476-2.324.412-.282.775-.561 1.091-.835v25.839h-5.696c-1.109 0-2.01.901-2.01 2.01v2.108c0 .546.22 1.041.574 1.404a150.269 150.269 0 0 0-2.074 6.832H12.333c-.71-2.57-1.452-4.943-2.074-6.832.355-.363.575-.858.575-1.404v-2.108c0-1.108-.902-2.01-2.01-2.01H3.127V5.568ZM2.055 35.482v-2.02H8.78v2.02H2.054Zm5.284 27.221a.652.652 0 0 1-.573.334H3.127V37.536h.984c3.74 12.663 4.947 22.043 3.227 25.167Zm5.035.334V57.37c0-1.22.993-2.213 2.214-2.213h5.333c1.22 0 2.213.993 2.213 2.213v5.668h-9.76Zm11.814 0V57.37c0-1.22.993-2.213 2.214-2.213h5.333c1.22 0 2.213.993 2.213 2.213v5.668h-9.76Zm11.814 0V57.37c0-1.22.994-2.213 2.214-2.213h5.333c1.22 0 2.214.993 2.214 2.213v5.668h-9.76Zm21.575 0h-9.76V57.37c0-1.22.993-2.213 2.213-2.213h5.333c1.22 0 2.214.993 2.214 2.213v5.668Zm2.054 0V57.37a4.272 4.272 0 0 0-4.268-4.267H50.03a4.258 4.258 0 0 0-3.24 1.495 4.258 4.258 0 0 0-3.24-1.495h-5.334a4.259 4.259 0 0 0-3.24 1.495 4.259 4.259 0 0 0-3.241-1.495h-5.333a4.26 4.26 0 0 0-3.24 1.495 4.259 4.259 0 0 0-3.241-1.495h-5.333a4.272 4.272 0 0 0-4.268 4.267v5.668h-.877c2.081-5.26-.893-17.612-3.19-25.501h2.045c.97 2.947 2.24 7.096 3.213 11.31a1.027 1.027 0 1 0 2-.462c-.198-.862-.41-1.721-.628-2.568h44.236c-.22.855-.434 1.722-.634 2.593a1.027 1.027 0 0 0 2.001.462c.974-4.223 2.246-8.382 3.219-11.335h2.045c-2.298 7.889-5.272 20.24-3.19 25.501h-.93Zm7.243 0h-3.638a.652.652 0 0 1-.573-.334c-1.72-3.124-.513-12.504 3.227-25.167h.984v25.501Zm1.073-27.555H61.22v-2.02h6.726v2.02Z" fill="#fff"/></svg><svg fill="none" viewBox="0 0 16 16" id="close-btn" xmlns="http://www.w3.org/2000/svg"><path d="M16 1.4 14.6 0 8 6.6 1.4 0 0 1.4 6.6 8 0 14.6 1.4 16 8 9.4l6.6 6.6 1.4-1.4L9.4 8 16 1.4Z" fill="#fff"/></svg><svg fill="none" viewBox="0 0 28 20" id="open-btn" xmlns="http://www.w3.org/2000/svg"><path d="M.667 8.333h20v3.334h-20V8.333ZM.667 0h26.666v3.333H.667V0Zm0 20h12.058v-3.333H.667V20Z" fill="#fff"/></svg><svg fill="none" viewBox="0 0 51 52" id="star" xmlns="http://www.w3.org/2000/svg"><path d="m25.152 0-7.774 17.123L0 19.853l12.576 13.334L9.603 52l15.55-8.877L40.7 52l-2.973-18.813 12.576-13.316-17.377-2.748L25.152 0Z" fill="#D1A954"/></svg></svg>