<svg width="70" height="66" viewBox="0 0 70 66" fill="none" xmlns="http://www.w3.org/2000/svg">
<path d="M68.927 31.6411V1.93559C68.927 1.36848 68.4674 0.908691 67.9001 0.908691H2.1C1.53276 0.908691 1.07311 1.36848 1.07311 1.93559V31.6412C0.435723 31.9786 0 32.648 0 33.418V35.5258C0 36.2958 0.435723 36.9653 1.07311 37.3027V64.0643C1.07311 64.6314 1.53289 65.0912 2.1 65.0912H6.7654H11.3462H11.6569H23.1602H34.9745H46.7887H58.3432H58.6027H63.2346H67.9C68.4672 65.0912 68.9269 64.6314 68.9269 64.0643V37.3027C69.5643 36.9652 70 36.2958 70 35.5258V33.418C70.0001 32.648 69.5644 31.9786 68.927 31.6411ZM66.4858 2.96262C66.0744 3.56747 65.315 4.27594 64.113 5.03091C64.0983 5.0402 64.0832 5.04936 64.0685 5.05866C63.9987 5.10214 63.9271 5.14575 63.8545 5.1895C63.8213 5.20946 63.788 5.22929 63.7544 5.24925C63.6992 5.28206 63.6424 5.31487 63.5854 5.34782C63.5395 5.37434 63.4937 5.40087 63.4466 5.42753C63.4015 5.45309 63.3549 5.4788 63.3087 5.50436C63.2513 5.53622 63.1945 5.56808 63.1356 5.60007C63.1254 5.60567 63.1146 5.61128 63.1043 5.61675C62.9556 5.69714 62.8015 5.77753 62.6434 5.85819C62.6009 5.87993 62.5592 5.90153 62.5159 5.92314C62.4553 5.95362 62.393 5.98397 62.3312 6.01446C62.2743 6.04235 62.2175 6.07038 62.1594 6.09827C62.1039 6.12507 62.0476 6.15173 61.9911 6.17853C61.919 6.21271 61.8459 6.24689 61.7718 6.28106C61.726 6.30226 61.6801 6.32345 61.6336 6.34464C61.5326 6.39071 61.4298 6.43679 61.3253 6.48286C61.3026 6.49298 61.2803 6.50296 61.2574 6.51308C60.8375 6.6971 60.3908 6.88167 59.9153 7.06611C59.9152 7.06611 59.9152 7.06624 59.9151 7.06624C59.3004 7.30468 58.644 7.54066 57.9421 7.77253C56.0422 8.39994 53.9944 8.94353 51.8391 9.39949C51.8049 9.40318 51.7707 9.40824 51.7364 9.41549C49.6913 9.84342 47.5388 10.1952 45.3389 10.4612C45.3111 10.4647 45.2839 10.4704 45.2566 10.4759C41.9447 10.8709 38.4897 11.0772 35.0001 11.0772C31.5105 11.0772 28.0553 10.871 24.7434 10.4762C24.7162 10.4705 24.6891 10.4648 24.6614 10.4615C22.4605 10.1953 20.3081 9.84355 18.2639 9.41576C18.2296 9.40851 18.1954 9.40345 18.1612 9.39976C16.0058 8.9438 13.9581 8.40021 12.0582 7.77281C11.3563 7.54107 10.6998 7.30495 10.0852 7.06652C10.0851 7.06652 10.0849 7.06638 10.0849 7.06638C9.60957 6.88208 9.16291 6.69751 8.74318 6.51349C8.72008 6.50337 8.69752 6.49312 8.67455 6.483C8.57023 6.43693 8.46769 6.39099 8.36679 6.34505C8.32031 6.32386 8.27437 6.30267 8.22857 6.28148C8.15447 6.2473 8.08146 6.21298 8.00927 6.17894C7.95281 6.15214 7.89648 6.12548 7.84097 6.09868C7.78287 6.07065 7.72613 6.04276 7.66925 6.01487C7.60732 5.98439 7.54511 5.95403 7.48455 5.92354C7.44134 5.90181 7.39951 5.88021 7.35699 5.8586C7.20058 5.7789 7.048 5.69919 6.90062 5.61962C6.88872 5.61319 6.87628 5.60677 6.86453 5.60034C6.80587 5.56862 6.74941 5.5369 6.69226 5.50505C6.64591 5.47935 6.59902 5.45351 6.55376 5.4278C6.50673 5.40114 6.46093 5.37462 6.41499 5.34809C6.35798 5.31515 6.30138 5.28233 6.24601 5.24952C6.21224 5.22956 6.17902 5.2096 6.14593 5.18977C6.0732 5.14602 6.00169 5.10241 5.93196 5.05893C5.91706 5.04964 5.90216 5.04048 5.88739 5.03118C4.68522 4.27608 3.92589 3.56747 3.5145 2.96276H66.4858V2.96262ZM3.1269 5.5689C3.44327 5.84274 3.80626 6.12165 4.21765 6.40411C5.3088 7.15907 6.76308 7.94439 8.69369 8.72861C8.69219 15.18 6.81066 22.3591 5.20052 27.321C5.02552 27.8605 5.32083 28.4398 5.86046 28.6148C6.39913 28.7895 6.97896 28.4944 7.15423 27.955C8.74783 23.0439 10.5982 16.0067 10.738 9.49396C10.9588 9.57039 11.1833 9.64681 11.4141 9.72297C13.0885 10.2759 14.872 10.7661 16.7399 11.1905C14.5695 17.9247 11.0308 23.4766 8.37855 27.0141C8.03839 27.4679 8.13041 28.1115 8.58418 28.4517C8.76888 28.5902 8.98504 28.657 9.19941 28.657C9.51168 28.657 9.82012 28.5151 10.0219 28.2461C12.7962 24.5458 16.5094 18.7135 18.761 11.6173C20.1754 11.8943 21.6307 12.1348 23.117 12.3379C20.9417 17.6674 16.5899 23.157 13.2013 26.9371C12.8227 27.3594 12.8582 28.0087 13.2806 28.3873C13.7031 28.766 14.3522 28.7303 14.7308 28.3081C21.049 21.2599 23.9186 15.9773 25.2219 12.5973C28.3948 12.9482 31.6837 13.1308 34.9999 13.1308C38.3165 13.1308 41.6055 12.9482 44.7785 12.5973C46.9989 18.3725 51.6693 24.2934 55.278 28.3183C55.6564 28.7404 56.3057 28.7759 56.7281 28.3973C57.1505 28.0187 57.1859 27.3694 56.8072 26.9471C53.4154 23.1644 49.0594 17.6704 46.8829 12.338C48.3693 12.1351 49.8245 11.8946 51.2389 11.6175C53.4932 18.7221 57.2125 24.5603 59.9916 28.2643C60.1934 28.5332 60.5016 28.675 60.8138 28.675C61.0284 28.675 61.2447 28.608 61.4294 28.4693C61.883 28.1289 61.9749 27.4852 61.6344 27.0316C58.9776 23.4906 55.433 17.9328 53.26 11.1904C55.1277 10.766 56.9113 10.2757 58.5857 9.72283C58.8165 9.64668 59.041 9.57025 59.2618 9.49382C59.4017 16.0032 61.2501 23.0358 62.8421 27.9436C63.0171 28.4833 63.5964 28.7783 64.1358 28.6037C64.6752 28.4287 64.9708 27.8494 64.7958 27.31C63.1873 22.3512 61.3078 15.1767 61.3063 8.72847C63.2369 7.94425 64.6912 7.15894 65.7824 6.40398C66.1937 6.12151 66.5569 5.84274 66.8731 5.56876V31.4077H61.1766C60.0682 31.4077 59.1664 32.3095 59.1664 33.4179V35.5257C59.1664 36.0719 59.3861 36.5672 59.7409 36.9299C59.1191 38.8199 58.3778 41.1923 57.6673 43.762H12.333C11.6223 41.1923 10.8809 38.8195 10.2593 36.9299C10.614 36.5672 10.8338 36.0719 10.8338 35.5257V33.4179C10.8338 32.3095 9.93195 31.4077 8.82357 31.4077H3.1269V5.5689ZM2.05393 35.4821V33.4618H8.77982V35.4821H4.87663H2.1H2.05393ZM7.33785 62.703C7.22423 62.9093 7.00494 63.0374 6.7654 63.0374H3.1269V37.536H4.11073C7.85109 50.1993 9.05832 59.5788 7.33785 62.703ZM12.3731 63.0374V57.3691C12.3731 56.1486 13.3661 55.1557 14.5866 55.1557H19.92C21.1405 55.1557 22.1333 56.1486 22.1333 57.3691V63.0374H12.3731ZM24.1872 63.0374V57.3691C24.1872 56.1486 25.1802 55.1557 26.4007 55.1557H31.734C32.9546 55.1557 33.9475 56.1486 33.9475 57.3691V63.0374H24.1872ZM36.0015 63.0374V57.3691C36.0015 56.1486 36.9945 55.1557 38.2149 55.1557H43.5482C44.7688 55.1557 45.7616 56.1486 45.7616 57.3691V63.0374H36.0015ZM57.5758 63.0374H47.8156V57.3691C47.8156 56.1486 48.8086 55.1557 50.029 55.1557H55.3623C56.5828 55.1557 57.5758 56.1486 57.5758 57.3691V63.0374ZM59.6297 63.0372V57.3691C59.6297 55.0161 57.7154 53.1017 55.3625 53.1017H50.0292C48.7336 53.1017 47.5721 53.6828 46.7887 54.5972C46.0054 53.6828 44.8437 53.1017 43.5482 53.1017H38.2149C36.9195 53.1017 35.7578 53.6828 34.9745 54.597C34.1912 53.6828 33.0295 53.1017 31.734 53.1017H26.4007C25.1053 53.1017 23.9436 53.6828 23.1602 54.597C22.3769 53.6828 21.2152 53.1017 19.9198 53.1017H14.5866C12.2335 53.1017 10.3191 55.0161 10.3191 57.3691V63.0374H9.44182C11.5232 57.7768 8.54904 45.4247 6.25107 37.536H8.29652C9.26682 40.4828 10.5367 44.6323 11.5096 48.8458C11.6371 49.3984 12.1885 49.7429 12.7413 49.6154C13.2939 49.4878 13.6384 48.9364 13.5108 48.3837C13.3118 47.5217 13.1007 46.6628 12.8823 45.8161H57.1181C56.8975 46.671 56.6844 47.5385 56.4837 48.4091C56.3563 48.9617 56.7009 49.5131 57.2537 49.6405C57.3313 49.6585 57.4089 49.6671 57.4854 49.6671C57.9529 49.6671 58.3756 49.3458 58.4853 48.8707C59.4591 44.6478 60.7315 40.489 61.7039 37.5359H63.7493C61.4514 45.4245 58.4772 57.7767 60.5586 63.0372H59.6297ZM66.8732 63.0374H63.2349C62.9953 63.0374 62.776 62.9093 62.6624 62.703C60.942 59.5789 62.1492 50.1993 65.8894 37.536H66.8732V63.0374ZM67.9462 35.4821H67.9001H65.1235H61.2203V33.4618H67.9462V35.4821Z" fill="white"/>
</svg>
